<svg xmlns="http://www.w3.org/2000/svg" width="200" height="200" fill="none" viewBox="0 0 64 64"><rect width="100%" height="100%" fill="#68DBF2"/><g clip-path="url(#a)"><rect width="40" height="23" x="7" y="60" fill="#3633E0" rx="9"/></g><defs><clipPath id="a"><path fill="#fff" d="M0 0h64v64H0z"/></clipPath></defs><g clip-path="url(#b)"><circle cx="18" cy="37" r="5" fill="#EAC0B3"/><path fill="#EAC0B3" d="M18 41h17v24.87S31.357 68 26.5 68 18 64.523 18 64.523V41Z"/><path fill="#C99688" d="M35 53.868c0 5.654-.882 5.118-6.617 5.118s-8.381-4.583-8.381-10.237S19.784 38 24.412 38C37.5 38.5 35 48.214 35 53.868Z"/><path fill="#F5D0C5" d="M45.886 36.1c0 8.922 3.686 19.893-12.386 19.893S17.428 45.022 17.428 36.1C15 25.5 15.5 13 32 13s13.886 14.177 13.886 23.1Z"/><rect width="3" height="2" x="36" y="41" fill="#EAC0B3" rx="1"/></g><defs><clipPath id="b"><path fill="#fff" d="M0 0h64v64H0z"/></clipPath></defs><g clip-path="url(#c)"><g clip-path="url(#d)"><rect width="3" height="4" x="30" y="36" fill="#1B0B47" rx="1.5"/><rect width="3" height="4" x="40" y="36" fill="#1B0B47" rx="1.5"/><rect width="5" height="3" x="24" y="39" fill="#FF859B" rx="1.5"/><rect width="4" height="3" x="43" y="39" fill="#FF859B" rx="1.5"/></g></g><defs><clipPath id="c"><rect width="64" height="64" fill="#fff" rx="32"/></clipPath><clipPath id="d"><rect width="64" height="64" fill="#fff" rx="32"/></clipPath></defs><path fill="#66253C" d="M27.93 46a1 1 0 0 1 1-1h9.142a1 1 0 0 1 1 1 5 5 0 0 1-5 5H32.93a5 5 0 0 1-5-5Z"/><path fill="#B03E67" fill-rule="evenodd" d="M35.756 50.708a4.992 4.992 0 0 1-1.684.29H32.93a5 5 0 0 1-4.996-4.8c.764-.285 1.898-.253 3.017-.22.356.01.71.02 1.05.02 2.21 0 4 1.568 4 3.5 0 .426-.087.833-.245 1.21Z" clip-rule="evenodd"/><path fill="#fff" d="M29 45h10v1a1 1 0 0 1-1 1h-8a1 1 0 0 1-1-1v-1Z"/><path fill="#1B0B47" fill-rule="evenodd" d="M28.965 26.201c5.611 1.863 13.389 4.445 21.535-3.701 4-4-14-21-28.5-11.5-11.333 1.679-10.686 8.47-10.186 13.71.096 1.003.186 1.948.186 2.79 0 .533.07.932.2 1.218A26.48 26.48 0 0 0 12 32a4 4 0 1 0 8 0 4 4 0 0 0 3.873-5.002L24 27c1.224 0 2.32-.55 3.053-1.415.604.182 1.243.394 1.912.616Z" clip-rule="evenodd"/></svg>
